<mxfile host="app.diagrams.net" agent="Mozilla/5.0 (Windows NT 10.0; Win64; x64) AppleWebKit/537.36 (KHTML, like Gecko) Chrome/137.0.0.0 Safari/537.36 OPR/121.0.0.0" version="28.2.5">
  <diagram name="Page-1" id="_LIKj2dzo9lhqbkckrP3">
    <mxGraphModel dx="491" dy="519" grid="1" gridSize="10" guides="1" tooltips="1" connect="1" arrows="1" fold="1" page="1" pageScale="1" pageWidth="827" pageHeight="1169" math="0" shadow="0">
      <root>
        <mxCell id="0" />
        <mxCell id="1" parent="0" />
        <mxCell id="hGYi5UJgPOuha-rpZjT5-7" style="edgeStyle=orthogonalEdgeStyle;rounded=0;orthogonalLoop=1;jettySize=auto;html=1;exitX=0.5;exitY=1;exitDx=0;exitDy=0;entryX=0.5;entryY=0;entryDx=0;entryDy=0;" edge="1" parent="1" source="hGYi5UJgPOuha-rpZjT5-2" target="hGYi5UJgPOuha-rpZjT5-6">
          <mxGeometry relative="1" as="geometry" />
        </mxCell>
        <mxCell id="hGYi5UJgPOuha-rpZjT5-2" value="Start Program" style="rounded=1;whiteSpace=wrap;html=1;arcSize=50;" vertex="1" parent="1">
          <mxGeometry x="50" y="60" width="120" height="60" as="geometry" />
        </mxCell>
        <mxCell id="hGYi5UJgPOuha-rpZjT5-11" style="edgeStyle=orthogonalEdgeStyle;rounded=0;orthogonalLoop=1;jettySize=auto;html=1;exitX=0;exitY=0.5;exitDx=0;exitDy=0;entryX=1;entryY=0.5;entryDx=0;entryDy=0;exitPerimeter=0;" edge="1" parent="1" source="hGYi5UJgPOuha-rpZjT5-34" target="hGYi5UJgPOuha-rpZjT5-8">
          <mxGeometry relative="1" as="geometry">
            <mxPoint x="260" y="80" as="sourcePoint" />
          </mxGeometry>
        </mxCell>
        <mxCell id="hGYi5UJgPOuha-rpZjT5-10" style="edgeStyle=orthogonalEdgeStyle;rounded=0;orthogonalLoop=1;jettySize=auto;html=1;exitX=0.5;exitY=1;exitDx=0;exitDy=0;entryX=0.5;entryY=0;entryDx=0;entryDy=0;" edge="1" parent="1" source="hGYi5UJgPOuha-rpZjT5-6" target="hGYi5UJgPOuha-rpZjT5-8">
          <mxGeometry relative="1" as="geometry" />
        </mxCell>
        <mxCell id="hGYi5UJgPOuha-rpZjT5-6" value="Determine first card" style="rounded=0;whiteSpace=wrap;html=1;" vertex="1" parent="1">
          <mxGeometry x="50" y="160" width="120" height="60" as="geometry" />
        </mxCell>
        <mxCell id="hGYi5UJgPOuha-rpZjT5-13" style="edgeStyle=orthogonalEdgeStyle;rounded=0;orthogonalLoop=1;jettySize=auto;html=1;exitX=0.5;exitY=1;exitDx=0;exitDy=0;entryX=0.5;entryY=0;entryDx=0;entryDy=0;" edge="1" parent="1" source="hGYi5UJgPOuha-rpZjT5-8" target="hGYi5UJgPOuha-rpZjT5-17">
          <mxGeometry relative="1" as="geometry">
            <mxPoint x="110" y="370" as="targetPoint" />
          </mxGeometry>
        </mxCell>
        <mxCell id="hGYi5UJgPOuha-rpZjT5-8" value="Randomize order of items of know values 1-5" style="rounded=0;whiteSpace=wrap;html=1;" vertex="1" parent="1">
          <mxGeometry x="50" y="270" width="120" height="60" as="geometry" />
        </mxCell>
        <mxCell id="hGYi5UJgPOuha-rpZjT5-19" style="edgeStyle=orthogonalEdgeStyle;rounded=0;orthogonalLoop=1;jettySize=auto;html=1;exitX=0.5;exitY=1;exitDx=0;exitDy=0;entryX=0.5;entryY=0;entryDx=0;entryDy=0;" edge="1" parent="1" source="hGYi5UJgPOuha-rpZjT5-17" target="hGYi5UJgPOuha-rpZjT5-18">
          <mxGeometry relative="1" as="geometry" />
        </mxCell>
        <mxCell id="hGYi5UJgPOuha-rpZjT5-17" value="Show first card" style="rounded=0;whiteSpace=wrap;html=1;" vertex="1" parent="1">
          <mxGeometry x="50" y="370" width="120" height="60" as="geometry" />
        </mxCell>
        <mxCell id="hGYi5UJgPOuha-rpZjT5-21" style="edgeStyle=orthogonalEdgeStyle;rounded=0;orthogonalLoop=1;jettySize=auto;html=1;exitX=1;exitY=0.5;exitDx=0;exitDy=0;entryX=0;entryY=0.5;entryDx=0;entryDy=0;" edge="1" parent="1" source="hGYi5UJgPOuha-rpZjT5-18" target="hGYi5UJgPOuha-rpZjT5-20">
          <mxGeometry relative="1" as="geometry" />
        </mxCell>
        <mxCell id="hGYi5UJgPOuha-rpZjT5-23" style="edgeStyle=orthogonalEdgeStyle;rounded=0;orthogonalLoop=1;jettySize=auto;html=1;exitX=0.5;exitY=1;exitDx=0;exitDy=0;entryX=0.5;entryY=0;entryDx=0;entryDy=0;" edge="1" parent="1" source="hGYi5UJgPOuha-rpZjT5-18">
          <mxGeometry relative="1" as="geometry">
            <mxPoint x="110" y="570" as="targetPoint" />
          </mxGeometry>
        </mxCell>
        <mxCell id="hGYi5UJgPOuha-rpZjT5-18" value="Log when user presses &#39;enter&#39;" style="shape=parallelogram;perimeter=parallelogramPerimeter;whiteSpace=wrap;html=1;fixedSize=1;" vertex="1" parent="1">
          <mxGeometry x="50" y="470" width="120" height="60" as="geometry" />
        </mxCell>
        <mxCell id="hGYi5UJgPOuha-rpZjT5-28" style="edgeStyle=orthogonalEdgeStyle;rounded=0;orthogonalLoop=1;jettySize=auto;html=1;exitX=0.5;exitY=1;exitDx=0;exitDy=0;entryX=0.5;entryY=0;entryDx=0;entryDy=0;" edge="1" parent="1" source="hGYi5UJgPOuha-rpZjT5-20" target="hGYi5UJgPOuha-rpZjT5-26">
          <mxGeometry relative="1" as="geometry" />
        </mxCell>
        <mxCell id="hGYi5UJgPOuha-rpZjT5-20" value="Assign to value 2-5" style="rounded=0;whiteSpace=wrap;html=1;" vertex="1" parent="1">
          <mxGeometry x="250" y="470" width="120" height="60" as="geometry" />
        </mxCell>
        <mxCell id="hGYi5UJgPOuha-rpZjT5-24" value="Place into&lt;div&gt;external DB&lt;/div&gt;" style="rhombus;whiteSpace=wrap;html=1;" vertex="1" parent="1">
          <mxGeometry x="250" y="670" width="120" height="70" as="geometry" />
        </mxCell>
        <mxCell id="hGYi5UJgPOuha-rpZjT5-27" style="edgeStyle=orthogonalEdgeStyle;rounded=0;orthogonalLoop=1;jettySize=auto;html=1;exitX=1;exitY=0.5;exitDx=0;exitDy=0;entryX=0;entryY=0.5;entryDx=0;entryDy=0;" edge="1" parent="1" source="hGYi5UJgPOuha-rpZjT5-25" target="hGYi5UJgPOuha-rpZjT5-26">
          <mxGeometry relative="1" as="geometry" />
        </mxCell>
        <mxCell id="hGYi5UJgPOuha-rpZjT5-32" style="edgeStyle=orthogonalEdgeStyle;rounded=0;orthogonalLoop=1;jettySize=auto;html=1;exitX=0.5;exitY=1;exitDx=0;exitDy=0;entryX=0.5;entryY=0;entryDx=0;entryDy=0;" edge="1" parent="1" source="hGYi5UJgPOuha-rpZjT5-25" target="hGYi5UJgPOuha-rpZjT5-31">
          <mxGeometry relative="1" as="geometry" />
        </mxCell>
        <mxCell id="hGYi5UJgPOuha-rpZjT5-25" value="Ask user if correct" style="rounded=0;whiteSpace=wrap;html=1;" vertex="1" parent="1">
          <mxGeometry x="50" y="570" width="120" height="60" as="geometry" />
        </mxCell>
        <mxCell id="hGYi5UJgPOuha-rpZjT5-29" style="edgeStyle=orthogonalEdgeStyle;rounded=0;orthogonalLoop=1;jettySize=auto;html=1;exitX=0.5;exitY=1;exitDx=0;exitDy=0;entryX=0.5;entryY=0;entryDx=0;entryDy=0;" edge="1" parent="1" source="hGYi5UJgPOuha-rpZjT5-26" target="hGYi5UJgPOuha-rpZjT5-24">
          <mxGeometry relative="1" as="geometry" />
        </mxCell>
        <mxCell id="hGYi5UJgPOuha-rpZjT5-26" value="Yes" style="shape=parallelogram;perimeter=parallelogramPerimeter;whiteSpace=wrap;html=1;fixedSize=1;" vertex="1" parent="1">
          <mxGeometry x="250" y="570" width="120" height="60" as="geometry" />
        </mxCell>
        <mxCell id="hGYi5UJgPOuha-rpZjT5-33" style="edgeStyle=orthogonalEdgeStyle;rounded=0;orthogonalLoop=1;jettySize=auto;html=1;exitX=1;exitY=0.5;exitDx=0;exitDy=0;entryX=0;entryY=0.5;entryDx=0;entryDy=0;" edge="1" parent="1" source="hGYi5UJgPOuha-rpZjT5-31" target="hGYi5UJgPOuha-rpZjT5-24">
          <mxGeometry relative="1" as="geometry" />
        </mxCell>
        <mxCell id="hGYi5UJgPOuha-rpZjT5-31" value="No (value 1)" style="shape=parallelogram;perimeter=parallelogramPerimeter;whiteSpace=wrap;html=1;fixedSize=1;" vertex="1" parent="1">
          <mxGeometry x="50" y="670" width="120" height="60" as="geometry" />
        </mxCell>
        <mxCell id="hGYi5UJgPOuha-rpZjT5-34" value="External Data" style="strokeWidth=2;html=1;shape=mxgraph.flowchart.stored_data;whiteSpace=wrap;" vertex="1" parent="1">
          <mxGeometry x="260" y="50" width="100" height="60" as="geometry" />
        </mxCell>
        <mxCell id="hGYi5UJgPOuha-rpZjT5-36" style="edgeStyle=orthogonalEdgeStyle;rounded=0;orthogonalLoop=1;jettySize=auto;html=1;exitX=1;exitY=0.5;exitDx=0;exitDy=0;entryX=0.93;entryY=0.5;entryDx=0;entryDy=0;entryPerimeter=0;" edge="1" parent="1" source="hGYi5UJgPOuha-rpZjT5-24" target="hGYi5UJgPOuha-rpZjT5-34">
          <mxGeometry relative="1" as="geometry">
            <Array as="points">
              <mxPoint x="410" y="705" />
              <mxPoint x="410" y="80" />
            </Array>
          </mxGeometry>
        </mxCell>
      </root>
    </mxGraphModel>
  </diagram>
</mxfile>
